<svg width="194" height="71" viewBox="0 0 194 71" fill="none" xmlns="http://www.w3.org/2000/svg">
<path d="M1.856 32V13.568C1.856 12.7147 2.05867 11.9467 2.464 11.264C2.89067 10.56 3.44533 10.0053 4.128 9.6C4.832 9.17333 5.61067 8.96 6.464 8.96H20.256C21.1093 8.96 21.8773 9.17333 22.56 9.6C23.264 10.0053 23.8293 10.56 24.256 11.264C24.6827 11.9467 24.896 12.7147 24.896 13.568V32H20.224V24.416H6.464V32H1.856ZM6.464 19.808H20.224V13.792C20.224 13.728 20.2027 13.6853 20.16 13.664C20.1387 13.6213 20.096 13.6 20.032 13.6H6.656C6.592 13.6 6.53867 13.6213 6.496 13.664C6.47467 13.6853 6.464 13.728 6.464 13.792V19.808ZM27.902 32V8.96H32.478V32H27.902ZM35.4498 32V8.96H53.8498C54.7031 8.96 55.4711 9.17333 56.1538 9.6C56.8578 10.0053 57.4231 10.56 57.8498 11.264C58.2764 11.9467 58.4898 12.7147 58.4898 13.568V27.392C58.4898 28.2453 58.2764 29.024 57.8498 29.728C57.4231 30.4107 56.8578 30.9653 56.1538 31.392C55.4711 31.7973 54.7031 32 53.8498 32H35.4498ZM40.2178 27.36H53.6258C53.6898 27.36 53.7324 27.3493 53.7538 27.328C53.7964 27.2853 53.8178 27.232 53.8178 27.168V13.792C53.8178 13.728 53.7964 13.6853 53.7538 13.664C53.7324 13.6213 53.6898 13.6 53.6258 13.6H40.2178C40.1751 13.6 40.1324 13.6213 40.0898 13.664C40.0471 13.6853 40.0258 13.728 40.0258 13.792V27.168C40.0258 27.232 40.0471 27.2853 40.0898 27.328C40.1324 27.3493 40.1751 27.36 40.2178 27.36ZM70.8413 32V23.392L60.1852 8.96H65.6573L73.1453 18.368L80.6013 8.96H86.1373L75.4813 23.424V32H70.8413ZM92.2103 32C91.3783 32 90.6103 31.7973 89.9062 31.392C89.2023 30.9653 88.6476 30.4107 88.2423 29.728C87.8369 29.024 87.6343 28.2453 87.6343 27.392V25.44H92.2423V27.168C92.2423 27.232 92.2529 27.2853 92.2743 27.328C92.3169 27.3493 92.3596 27.36 92.4023 27.36H105.81C105.853 27.36 105.896 27.3493 105.938 27.328C105.981 27.2853 106.002 27.232 106.002 27.168V22.976C106.002 22.9333 105.981 22.9013 105.938 22.88C105.896 22.8373 105.853 22.816 105.81 22.816H92.2103C91.3783 22.816 90.6103 22.6133 89.9062 22.208C89.2023 21.7813 88.6476 21.216 88.2423 20.512C87.8369 19.808 87.6343 19.04 87.6343 18.208V13.568C87.6343 12.7147 87.8369 11.9467 88.2423 11.264C88.6476 10.56 89.2023 10.0053 89.9062 9.6C90.6103 9.17333 91.3783 8.96 92.2103 8.96H106.066C106.898 8.96 107.656 9.17333 108.338 9.6C109.042 10.0053 109.608 10.56 110.034 11.264C110.461 11.9467 110.674 12.7147 110.674 13.568V15.52H106.002V13.792C106.002 13.728 105.981 13.6853 105.938 13.664C105.896 13.6213 105.853 13.6 105.81 13.6H92.4023C92.3596 13.6 92.3169 13.6213 92.2743 13.664C92.2529 13.6853 92.2423 13.728 92.2423 13.792V17.984C92.2423 18.0267 92.2529 18.0693 92.2743 18.112C92.3169 18.1333 92.3596 18.144 92.4023 18.144H106.066C106.898 18.144 107.656 18.3573 108.338 18.784C109.042 19.1893 109.608 19.744 110.034 20.448C110.461 21.152 110.674 21.92 110.674 22.752V27.392C110.674 28.2453 110.461 29.024 110.034 29.728C109.608 30.4107 109.042 30.9653 108.338 31.392C107.656 31.7973 106.898 32 106.066 32H92.2103Z" fill="url(#paint0_linear_1_10)"/>
<path d="M1.344 54.4286V37.1726H15.144C15.784 37.1726 16.36 37.3326 16.872 37.6526C17.4 37.9566 17.824 38.3726 18.144 38.9006C18.464 39.4286 18.624 40.0046 18.624 40.6286V45.1886C18.624 45.8126 18.464 46.3886 18.144 46.9166C17.824 47.4286 17.4 47.8446 16.872 48.1646C16.36 48.4686 15.784 48.6206 15.144 48.6206L4.8 48.6446V54.4286H1.344ZM4.944 45.1406H14.976C15.024 45.1406 15.056 45.1326 15.072 45.1166C15.104 45.0846 15.12 45.0526 15.12 45.0206V40.7726C15.12 40.7246 15.104 40.6926 15.072 40.6766C15.056 40.6446 15.024 40.6286 14.976 40.6286H4.944C4.896 40.6286 4.856 40.6446 4.824 40.6766C4.808 40.6926 4.8 40.7246 4.8 40.7726V45.0206C4.8 45.0526 4.808 45.0846 4.824 45.1166C4.856 45.1326 4.896 45.1406 4.944 45.1406ZM23.7364 54.4286C23.0964 54.4286 22.5124 54.2766 21.9844 53.9726C21.4724 53.6526 21.0564 53.2366 20.7364 52.7246C20.4324 52.1966 20.2804 51.6126 20.2804 50.9726V37.1486H23.7364V50.8046C23.7364 50.8526 23.7444 50.8926 23.7604 50.9246C23.7924 50.9406 23.8324 50.9486 23.8804 50.9486H33.9124C33.9604 50.9486 33.9924 50.9406 34.0084 50.9246C34.0404 50.8926 34.0564 50.8526 34.0564 50.8046V37.1486H37.5604V50.9726C37.5604 51.6126 37.4004 52.1966 37.0804 52.7246C36.7604 53.2366 36.3364 53.6526 35.8084 53.9726C35.2964 54.2766 34.7284 54.4286 34.1044 54.4286H23.7364ZM43.5874 54.4286C42.9634 54.4286 42.3874 54.2766 41.8594 53.9726C41.3314 53.6526 40.9154 53.2366 40.6114 52.7246C40.3074 52.1966 40.1554 51.6126 40.1554 50.9726V49.5086H43.6114V50.8046C43.6114 50.8526 43.6194 50.8926 43.6354 50.9246C43.6674 50.9406 43.6994 50.9486 43.7314 50.9486H53.7874C53.8194 50.9486 53.8514 50.9406 53.8834 50.9246C53.9154 50.8926 53.9314 50.8526 53.9314 50.8046V47.6606C53.9314 47.6286 53.9154 47.6046 53.8834 47.5886C53.8514 47.5566 53.8194 47.5406 53.7874 47.5406H43.5874C42.9634 47.5406 42.3874 47.3886 41.8594 47.0846C41.3314 46.7646 40.9154 46.3406 40.6114 45.8126C40.3074 45.2846 40.1554 44.7086 40.1554 44.0846V40.6046C40.1554 39.9646 40.3074 39.3886 40.6114 38.8766C40.9154 38.3486 41.3314 37.9326 41.8594 37.6286C42.3874 37.3086 42.9634 37.1486 43.5874 37.1486H53.9794C54.6034 37.1486 55.1714 37.3086 55.6834 37.6286C56.2114 37.9326 56.6354 38.3486 56.9554 38.8766C57.2754 39.3886 57.4354 39.9646 57.4354 40.6046V42.0686H53.9314V40.7726C53.9314 40.7246 53.9154 40.6926 53.8834 40.6766C53.8514 40.6446 53.8194 40.6286 53.7874 40.6286H43.7314C43.6994 40.6286 43.6674 40.6446 43.6354 40.6766C43.6194 40.6926 43.6114 40.7246 43.6114 40.7726V43.9166C43.6114 43.9486 43.6194 43.9806 43.6354 44.0126C43.6674 44.0286 43.6994 44.0366 43.7314 44.0366H53.9794C54.6034 44.0366 55.1714 44.1966 55.6834 44.5166C56.2114 44.8206 56.6354 45.2366 56.9554 45.7646C57.2754 46.2926 57.4354 46.8686 57.4354 47.4926V50.9726C57.4354 51.6126 57.2754 52.1966 56.9554 52.7246C56.6354 53.2366 56.2114 53.6526 55.6834 53.9726C55.1714 54.2766 54.6034 54.4286 53.9794 54.4286H43.5874ZM60.0789 54.4286V37.1486H63.5349V44.0366H74.2629V37.1486H77.7189V54.4286H74.2629V47.5406H63.5349V54.4286H60.0789ZM80.493 54.4286V37.1486H83.973V44.0366H87.693L93.453 37.1486H97.149V38.2526L90.813 45.7886L97.149 53.3246V54.4286H93.453L87.693 47.5406H83.973V54.4286H80.493ZM103.002 54.4286C102.362 54.4286 101.778 54.2766 101.25 53.9726C100.738 53.6526 100.322 53.2366 100.002 52.7246C99.698 52.1966 99.546 51.6126 99.546 50.9726V37.1486H103.002V50.8046C103.002 50.8526 103.01 50.8926 103.026 50.9246C103.058 50.9406 103.098 50.9486 103.146 50.9486H113.178C113.226 50.9486 113.258 50.9406 113.274 50.9246C113.306 50.8926 113.322 50.8526 113.322 50.8046V37.1486H116.826V50.9726C116.826 51.6126 116.666 52.1966 116.346 52.7246C116.026 53.2366 115.602 53.6526 115.074 53.9726C114.562 54.2766 113.994 54.4286 113.37 54.4286H103.002ZM119.469 54.4286V37.1486H123.141L133.245 49.1966V37.1486H136.749V54.4286H133.077L122.925 42.3326V54.4286H119.469ZM142.846 54.4286C142.206 54.4286 141.622 54.2766 141.094 53.9726C140.582 53.6526 140.166 53.2366 139.846 52.7246C139.542 52.1966 139.39 51.6126 139.39 50.9726V40.6046C139.39 39.9646 139.542 39.3886 139.846 38.8766C140.166 38.3486 140.582 37.9326 141.094 37.6286C141.622 37.3086 142.206 37.1486 142.846 37.1486H153.214C153.838 37.1486 154.406 37.3086 154.918 37.6286C155.446 37.9326 155.87 38.3486 156.19 38.8766C156.51 39.3886 156.67 39.9646 156.67 40.6046V50.9726C156.67 51.6126 156.51 52.1966 156.19 52.7246C155.87 53.2366 155.446 53.6526 154.918 53.9726C154.406 54.2766 153.838 54.4286 153.214 54.4286H142.846ZM142.99 50.9486H153.022C153.07 50.9486 153.102 50.9406 153.118 50.9246C153.15 50.8926 153.166 50.8526 153.166 50.8046V40.7726C153.166 40.7246 153.15 40.6926 153.118 40.6766C153.102 40.6446 153.07 40.6286 153.022 40.6286H142.99C142.942 40.6286 142.902 40.6446 142.87 40.6766C142.854 40.6926 142.846 40.7246 142.846 40.7726V50.8046C142.846 50.8526 142.854 50.8926 142.87 50.9246C142.902 50.9406 142.942 50.9486 142.99 50.9486ZM167.996 54.4286L157.988 37.1486H161.996L169.484 50.1326L176.972 37.1486H180.98L170.972 54.4286H167.996Z" fill="white"/>
<defs>
<linearGradient id="paint0_linear_1_10" x1="97.1327" y1="23.7313" x2="35.7601" y2="10.3072" gradientUnits="userSpaceOnUse">
<stop stop-color="#00A0FF"/>
<stop offset="0.964741" stop-color="#FF56F6"/>
</linearGradient>
</defs>
</svg>
